# xmcd
#
# Track frame offsets: 
#        150
#        15907
#        37496
#        48511
#        62473
#        75176
#        83196
#        96608
#        106134
#        117272
#        127163
#        136397
#
# Disc length: 1995 seconds
#
# Revision: 1
# Processed by: cddbd v1.5.2PL0 Copyright (c) Steve Scherf et al.
# Submitted via: ExactAudioCopy v1.0b3
#
DISCID=9c07c90c
DTITLE=Buffy Sainte-Marie - Bets Of Buffy Sainte-Marie - CD 2
DYEAR=1987
DGENRE=Native American
TTITLE0=Rolling Log Blues
TTITLE1=God Is Alive, Magic Is Afoot
TTITLE2=guess Who I Saw In Paris
TTITLE3=Piney Wood Hills
TTITLE4=Now That The Buffalo's Gone
TTITLE5=Cripple Creek
TTITLE6=I'm Going To Be A Country Girl Again
TTITLE7=The Vampire
TTITLE8=Little Wheel Spin And Spin
TTITLE9=Winter Boy
TTITLE10=Los Pescadores
TTITLE11=Sometimes When I Get To Thinkin'
EXTD=
EXTT0=
EXTT1=
EXTT2=
EXTT3=
EXTT4=
EXTT5=
EXTT6=
EXTT7=
EXTT8=
EXTT9=
EXTT10=
EXTT11=
PLAYORDER=
